<svg width="30" height="31" viewBox="0 0 30 31" fill="none" xmlns="http://www.w3.org/2000/svg">
<path d="M21.6771 16.9584C22.7708 16.9584 23.7333 16.3605 24.2292 15.4563L29.45 5.99175C29.9896 5.02925 29.2896 3.83341 28.1813 3.83341H6.59793L5.22709 0.916748H0.458344V3.83341H3.37501L8.62501 14.9022L6.65626 18.4605C5.59168 20.4147 6.99168 22.7917 9.20834 22.7917H26.7083V19.8751H9.20834L10.8125 16.9584H21.6771ZM7.98334 6.75008H25.7021L21.6771 14.0417H11.4396L7.98334 6.75008ZM9.20834 24.2501C7.60418 24.2501 6.30626 25.5626 6.30626 27.1667C6.30626 28.7709 7.60418 30.0834 9.20834 30.0834C10.8125 30.0834 12.125 28.7709 12.125 27.1667C12.125 25.5626 10.8125 24.2501 9.20834 24.2501ZM23.7917 24.2501C22.1875 24.2501 20.8896 25.5626 20.8896 27.1667C20.8896 28.7709 22.1875 30.0834 23.7917 30.0834C25.3958 30.0834 26.7083 28.7709 26.7083 27.1667C26.7083 25.5626 25.3958 24.2501 23.7917 24.2501Z" fill="white"/>
</svg>
