<svg width="60" height="42" viewBox="0 0 60 42" fill="none" xmlns="http://www.w3.org/2000/svg">
<path d="M50.4166 6.41659C50.4166 3.20825 47.7916 0.583252 44.5833 0.583252H35.8333V6.41659H44.5833V14.1458L34.4333 26.8333H24.1666V12.2499H12.5C6.05415 12.2499 0.833313 17.4708 0.833313 23.9166V32.6666H6.66665C6.66665 37.5083 10.575 41.4166 15.4166 41.4166C20.2583 41.4166 24.1666 37.5083 24.1666 32.6666H37.2333L50.4166 16.1874V6.41659ZM15.4166 35.5833C13.8125 35.5833 12.5 34.2708 12.5 32.6666H18.3333C18.3333 34.2708 17.0208 35.5833 15.4166 35.5833Z" fill="white"/>
<path d="M24.1666 3.5H9.58331V9.33333H24.1666V3.5Z" fill="white"/>
<path d="M50.4166 23.9165C45.575 23.9165 41.6666 27.8248 41.6666 32.6665C41.6666 37.5082 45.575 41.4165 50.4166 41.4165C55.2583 41.4165 59.1666 37.5082 59.1666 32.6665C59.1666 27.8248 55.2583 23.9165 50.4166 23.9165ZM50.4166 35.5832C48.8125 35.5832 47.5 34.2707 47.5 32.6665C47.5 31.0623 48.8125 29.7498 50.4166 29.7498C52.0208 29.7498 53.3333 31.0623 53.3333 32.6665C53.3333 34.2707 52.0208 35.5832 50.4166 35.5832Z" fill="white"/>
</svg>
