<svg width="128" height="24" viewBox="0 0 128 24" fill="none" xmlns="http://www.w3.org/2000/svg">
<g clip-path="url(#clip0_1_851)">
<path d="M116 17.27L120.15 19.78C120.91 20.24 121.84 19.56 121.64 18.7L120.54 13.98L124.21 10.8C124.88 10.22 124.52 9.12001 123.64 9.05001L118.81 8.64001L116.92 4.18001C116.58 3.37001 115.42 3.37001 115.08 4.18001L113.19 8.63001L108.36 9.04001C107.48 9.11001 107.12 10.21 107.79 10.79L111.46 13.97L110.36 18.69C110.16 19.55 111.09 20.23 111.85 19.77L116 17.27Z" fill="#B92728"/>
</g>
<g clip-path="url(#clip1_1_851)">
<path d="M90 17.27L94.15 19.78C94.91 20.24 95.84 19.56 95.64 18.7L94.54 13.98L98.21 10.8C98.88 10.22 98.52 9.12001 97.64 9.05001L92.81 8.64001L90.92 4.18001C90.58 3.37001 89.42 3.37001 89.08 4.18001L87.19 8.63001L82.36 9.04001C81.48 9.11001 81.12 10.21 81.79 10.79L85.46 13.97L84.36 18.69C84.16 19.55 85.09 20.23 85.85 19.77L90 17.27Z" fill="#B92728"/>
</g>
<g clip-path="url(#clip2_1_851)">
<path d="M64 17.27L68.15 19.78C68.91 20.24 69.84 19.56 69.64 18.7L68.54 13.98L72.21 10.8C72.88 10.22 72.52 9.12001 71.64 9.05001L66.81 8.64001L64.92 4.18001C64.58 3.37001 63.42 3.37001 63.08 4.18001L61.19 8.63001L56.36 9.04001C55.48 9.11001 55.12 10.21 55.79 10.79L59.46 13.97L58.36 18.69C58.16 19.55 59.09 20.23 59.85 19.77L64 17.27Z" fill="#B92728"/>
</g>
<g clip-path="url(#clip3_1_851)">
<path d="M12 17.27L16.15 19.78C16.91 20.24 17.84 19.56 17.64 18.7L16.54 13.98L20.21 10.8C20.88 10.22 20.52 9.12001 19.64 9.05001L14.81 8.64001L12.92 4.18001C12.58 3.37001 11.42 3.37001 11.08 4.18001L9.19 8.63001L4.36 9.04001C3.48 9.11001 3.12 10.21 3.79 10.79L7.46 13.97L6.36 18.69C6.16 19.55 7.09 20.23 7.85 19.77L12 17.27Z" fill="#B92728"/>
</g>
<g clip-path="url(#clip4_1_851)">
<path d="M38 17.27L42.15 19.78C42.91 20.24 43.84 19.56 43.64 18.7L42.54 13.98L46.21 10.8C46.88 10.22 46.52 9.12001 45.64 9.05001L40.81 8.64001L38.92 4.18001C38.58 3.37001 37.42 3.37001 37.08 4.18001L35.19 8.63001L30.36 9.04001C29.48 9.11001 29.12 10.21 29.79 10.79L33.46 13.97L32.36 18.69C32.16 19.55 33.09 20.23 33.85 19.77L38 17.27Z" fill="#B92728"/>
</g>
<defs>
<clipPath id="clip0_1_851">
<rect width="24" height="24" fill="white" transform="translate(104)"/>
</clipPath>
<clipPath id="clip1_1_851">
<rect width="24" height="24" fill="white" transform="translate(78)"/>
</clipPath>
<clipPath id="clip2_1_851">
<rect width="24" height="24" fill="white" transform="translate(52)"/>
</clipPath>
<clipPath id="clip3_1_851">
<rect width="24" height="24" fill="white"/>
</clipPath>
<clipPath id="clip4_1_851">
<rect width="24" height="24" fill="white" transform="translate(26)"/>
</clipPath>
</defs>
</svg>
