<svg width="40" height="40" viewBox="0 0 40 40" fill="none" xmlns="http://www.w3.org/2000/svg">
<g clip-path="url(#clip0_1_623)">
<path d="M25.9167 21.6666C27.1667 21.6666 28.2667 20.9833 28.8334 19.95L34.8 9.13331C35.4167 8.03331 34.6167 6.66665 33.35 6.66665H8.68335L7.11669 3.33331H1.66669V6.66665H5.00002L11 19.3166L8.75002 23.3833C7.53335 25.6166 9.13335 28.3333 11.6667 28.3333H31.6667V25H11.6667L13.5 21.6666H25.9167ZM10.2667 9.99998H30.5167L25.9167 18.3333H14.2167L10.2667 9.99998ZM11.6667 30C9.83335 30 8.35002 31.5 8.35002 33.3333C8.35002 35.1666 9.83335 36.6666 11.6667 36.6666C13.5 36.6666 15 35.1666 15 33.3333C15 31.5 13.5 30 11.6667 30ZM28.3334 30C26.5 30 25.0167 31.5 25.0167 33.3333C25.0167 35.1666 26.5 36.6666 28.3334 36.6666C30.1667 36.6666 31.6667 35.1666 31.6667 33.3333C31.6667 31.5 30.1667 30 28.3334 30Z" fill="#B92728"/>
</g>
<defs>
<clipPath id="clip0_1_623">
<rect width="40" height="40" fill="white"/>
</clipPath>
</defs>
</svg>
