<svg width="25" height="25" viewBox="0 0 25 25" fill="none" xmlns="http://www.w3.org/2000/svg">
<path d="M12.5 3.60409C14.1917 3.60409 15.5625 4.97492 15.5625 6.66658C15.5625 8.35825 14.1917 9.72908 12.5 9.72908C10.8083 9.72908 9.4375 8.35825 9.4375 6.66658C9.4375 4.97492 10.8083 3.60409 12.5 3.60409ZM12.5 16.7291C16.8313 16.7291 21.3958 18.8583 21.3958 19.7916V21.3958H3.60417V19.7916C3.60417 18.8583 8.16875 16.7291 12.5 16.7291ZM12.5 0.833252C9.27709 0.833252 6.66667 3.44367 6.66667 6.66658C6.66667 9.8895 9.27709 12.4999 12.5 12.4999C15.7229 12.4999 18.3333 9.8895 18.3333 6.66658C18.3333 3.44367 15.7229 0.833252 12.5 0.833252ZM12.5 13.9583C8.60625 13.9583 0.833336 15.9124 0.833336 19.7916V24.1666H24.1667V19.7916C24.1667 15.9124 16.3938 13.9583 12.5 13.9583Z" fill="white"/>
</svg>
